<?xml version="1.0" encoding="utf-8"?>
<!-- Uploaded to: SVG Repo, www.svgrepo.com, Generator: SVG Repo Mixer Tools -->
<svg width="800px" height="800px" viewBox="0 0 1024 1024" class="icon"  version="1.1" xmlns="http://www.w3.org/2000/svg"><path d="M853.333333 448h85.333334v490.666667h-85.333334zM725.333333 597.333333h85.333334v341.333334h-85.333334zM597.333333 490.666667h85.333334v448h-85.333334zM469.333333 618.666667h85.333334v320h-85.333334zM341.333333 682.666667h85.333334v256h-85.333334zM213.333333 640h85.333334v298.666667h-85.333334zM85.333333 725.333333h85.333334v213.333334H85.333333z" fill="#4CAF50" /><path d="M855.466667 194.133333L725.333333 324.266667l-85.333333-85.333334-213.333333 213.333334-106.666667-106.666667L98.133333 567.466667l59.733334 59.733333 162.133333-162.133333 106.666667 106.666666 213.333333-213.333333 85.333333 85.333333 189.866667-189.866666z" fill="#388E3C" /><path d="M938.666667 170.666667h-192l192 192z" fill="#388E3C" /></svg>